<mxfile host="app.diagrams.net" modified="2024-03-13T09:51:32.541Z" agent="Mozilla/5.0 (Windows NT 10.0; Win64; x64) AppleWebKit/537.36 (KHTML, like Gecko) Chrome/120.0.0.0 YaBrowser/24.1.0.0 Safari/537.36" version="24.0.5" etag="cFds7do7S54WGnD31gSe" type="github">
  <diagram name="Страница — 1" id="BTOuF2yHbBAiNaIfMVqT">
    <mxGraphModel>
      <root>
        <mxCell id="0" />
        <mxCell id="1" parent="0" />
      </root>
    </mxGraphModel>
  </diagram>
</mxfile>
